<?xml version="1.0" encoding="utf-8"?>
<!-- Generator: Adobe Illustrator 26.0.3, SVG Export Plug-In . SVG Version: 6.00 Build 0)  -->
<svg version="1.1" id="Layer_1" xmlns="http://www.w3.org/2000/svg" xmlns:xlink="http://www.w3.org/1999/xlink" x="0px" y="0px"
	 width="512px" height="512px" viewBox="0 0 512 512" style="enable-background:new 0 0 512 512;" xml:space="preserve">
<path id="uyFxWj.tif" d="M215,460c-41.3,0-82.7,0-124,0c-14.3-5.2-18-10.5-18-26c0-47.8,0-95.6-0.1-143.4c0-3.7,1-6.1,3.9-8.5
	c46.7-38.4,93.3-76.9,140-115.3c13-10.7,25.9-21.3,39-32.1c1.7,1.3,3.2,2.4,4.5,3.5c58.3,48.1,116.7,96.2,175.1,144.2
	c2.8,2.3,3.5,4.8,3.5,8.1c-0.1,47.8-0.1,95.6-0.1,143.4c0,15.5-3.7,20.8-18,26c-41.3,0-82.7,0-124,0c-0.1-2.2-0.3-4.3-0.3-6.5
	c0-36.5,0-72.9,0-109.4c0-1.9,0-3.9,0-5.9c-27.5,0-54.3,0-81.5,0c0,2.4,0,4.4,0,6.4c0,31.8,0,63.6,0,95.4
	C215.2,446.7,215.1,453.3,215,460z M504.9,247.9c-20.7-17.3-41.4-34.6-62.2-51.7c-2.7-2.2-3.8-4.4-3.8-8
	c0.1-40.3,0.1-80.6,0.1-120.9c0-11.1-3.1-14.2-14.4-14.2c-17.8,0-35.6,0-53.5,0c-10.1,0-13.4,3.3-13.4,13.5c0,17.5,0,35,0,52.5
	c0,1.6,0,3.2,0,5.8c-1.8-1.3-3.1-2-4.1-2.9c-22.1-18.5-44.3-36.8-66.2-55.5C279,59.3,270.2,53.4,259,52c-2,0-4,0-6,0
	c-12.5,1.2-21.5,8.7-30.7,16.4c-72,60.1-144,120.1-216,180.1c-2.5,2.1-4.2,5-6.3,7.5c0,2,0,4,0,6c6.6,8.1,13.2,16.1,19.9,24.2
	c6.1,7.3,11.4,7.7,18.8,1.6c70.5-58.8,141-117.6,211.5-176.4c1.8-1.5,3.6-2.9,5.7-4.7c1.6,1.3,3.2,2.5,4.7,3.8
	c70.6,58.9,141.3,117.8,211.9,176.7c8.4,7,13.3,6.6,20.2-1.7c6.4-7.8,12.9-15.6,19.3-23.4c0-2,0-4,0-6
	C509.7,253.3,507.6,250.2,504.9,247.9z"/>
</svg>
